<?xml version="1.0" standalone="no"?>
<!DOCTYPE svg PUBLIC "-//W3C//DTD SVG 20010904//EN"
 "http://www.w3.org/TR/2001/REC-SVG-20010904/DTD/svg10.dtd">
<svg version="1.0" xmlns="http://www.w3.org/2000/svg"
 width="2560.000000pt" height="2560.000000pt" viewBox="0 0 2560.000000 2560.000000"
 preserveAspectRatio="xMidYMid meet">

<g transform="translate(0.000000,2560.000000) scale(0.100000,-0.100000)"
fill="#000000" stroke="none">
<path d="M7226 18840 c-49 -15 -69 -40 -62 -80 8 -52 85 -193 122 -225 6 -5
47 -64 89 -130 43 -66 85 -127 94 -136 9 -9 30 -33 46 -55 17 -21 56 -65 89
-96 33 -34 56 -64 53 -72 -3 -8 -45 -26 -94 -41 -127 -39 -148 -50 -211 -113
-82 -81 -116 -149 -114 -228 0 -56 5 -69 40 -121 42 -61 89 -113 103 -113 5 0
18 -9 30 -21 11 -11 45 -33 75 -50 30 -16 79 -42 109 -59 30 -16 73 -34 95
-40 40 -11 48 -27 19 -40 -8 -4 -24 -12 -37 -19 -12 -6 -115 -34 -229 -62
-125 -30 -234 -63 -277 -83 -90 -43 -228 -156 -268 -220 -50 -82 -49 -103 12
-197 61 -93 128 -162 183 -191 21 -10 37 -24 34 -31 -6 -18 -133 -87 -160 -87
-17 0 -120 -106 -149 -155 -45 -74 -44 -104 9 -162 50 -55 210 -149 288 -169
28 -7 74 -20 104 -28 132 -37 143 -122 24 -181 -54 -27 -203 -162 -203 -185 0
-5 -6 -15 -14 -22 -20 -20 -46 -74 -46 -95 0 -27 50 -97 110 -153 33 -31 50
-54 44 -59 -25 -24 -213 -29 -1179 -31 -561 -1 -1042 -3 -1070 -5 -27 -1 -122
-6 -210 -9 -88 -4 -178 -9 -200 -11 -22 -2 -101 -7 -175 -10 -166 -7 -241 -12
-445 -27 -121 -10 -558 -12 -1800 -10 -902 1 -1723 4 -1825 7 -102 2 -195 2
-207 -1 l-23 -6 0 -243 0 -243 47 -18 c27 -9 77 -29 113 -45 36 -15 126 -44
200 -64 205 -55 340 -105 340 -124 0 -12 -10 -15 -155 -45 -118 -25 -302 -73
-460 -119 l-80 -24 -3 -240 -2 -240 92 -7 c51 -4 109 -9 128 -11 136 -17 203
-27 223 -34 20 -8 19 -10 -18 -26 -22 -9 -89 -34 -150 -55 -100 -34 -194 -72
-252 -102 l-23 -11 0 -274 0 -273 30 0 c41 0 46 -19 20 -70 -20 -40 -20 -43
-4 -67 26 -41 62 -68 160 -122 99 -55 149 -76 234 -96 30 -7 73 -18 95 -23
110 -28 182 -20 278 32 109 59 174 41 280 -77 177 -200 201 -210 507 -227 96
-5 191 -11 210 -14 19 -3 54 -8 78 -11 79 -12 181 -68 207 -116 15 -27 150
-132 235 -182 103 -61 207 -94 300 -97 130 -3 163 -7 222 -30 55 -20 172 -98
179 -118 2 -6 48 -57 102 -115 108 -116 191 -170 284 -182 26 -4 82 -13 123
-22 41 -8 127 -17 190 -20 139 -6 160 -16 276 -131 101 -101 159 -132 274
-147 25 -3 52 -8 60 -10 8 -2 94 -9 190 -15 195 -12 252 -28 270 -75 16 -43
69 -115 138 -187 68 -71 139 -108 232 -122 25 -4 90 -16 145 -26 55 -10 139
-21 186 -24 99 -7 168 -32 197 -74 10 -15 34 -57 51 -94 37 -75 60 -98 114
-117 50 -17 188 -15 257 4 30 8 67 15 81 15 36 0 99 -28 124 -54 26 -28 88
-66 107 -66 8 0 34 14 58 31 23 17 46 27 50 22 4 -4 12 -39 19 -78 17 -97 48
-146 127 -199 77 -52 106 -90 129 -173 9 -34 29 -75 44 -92 27 -33 35 -35 172
-46 47 -4 88 -14 107 -25 33 -20 81 -86 102 -140 23 -60 60 -110 86 -120 14
-6 54 -10 89 -10 63 0 64 0 118 -52 63 -63 119 -143 173 -252 42 -84 55 -95
132 -102 23 -2 52 -8 63 -15 34 -17 78 -60 84 -80 12 -38 77 -124 111 -147 19
-13 59 -32 88 -42 87 -30 114 -48 151 -103 19 -28 35 -56 35 -61 0 -5 13 -30
30 -56 32 -49 79 -81 147 -99 60 -16 93 -48 167 -160 65 -100 121 -152 181
-167 45 -11 133 -59 169 -92 19 -17 50 -64 69 -106 20 -41 46 -80 58 -86 12
-7 68 -16 126 -21 57 -5 116 -15 131 -23 15 -8 68 -56 119 -108 115 -116 138
-134 249 -198 49 -29 132 -80 184 -114 52 -34 115 -75 140 -91 82 -52 217
-205 234 -265 4 -14 14 -39 22 -57 12 -26 12 -49 4 -128 -12 -104 -10 -120 25
-171 25 -37 25 -81 0 -189 -8 -33 -22 -121 -30 -195 -9 -74 -21 -171 -27 -215
-16 -118 -24 -315 -14 -350 10 -34 32 -62 122 -158 35 -37 64 -70 63 -75 -1
-17 -197 -291 -229 -322 -3 -3 -28 -32 -55 -65 -28 -33 -60 -71 -73 -85 -13
-14 -33 -41 -44 -60 -12 -19 -25 -37 -28 -40 -4 -3 -13 -16 -20 -29 -7 -14
-17 -30 -22 -35 -10 -12 -180 -274 -262 -403 -81 -128 -245 -412 -293 -506
-59 -119 -155 -276 -341 -557 -161 -244 -309 -432 -421 -535 -184 -171 -431
-426 -530 -549 -76 -94 -90 -132 -61 -160 18 -18 23 -19 57 -7 21 8 83 44 138
80 55 37 120 75 145 86 25 10 56 26 70 36 14 9 59 31 100 49 41 18 80 36 85
40 32 24 272 96 415 125 177 35 434 111 546 160 21 9 48 21 59 26 76 32 101
42 111 44 5 2 36 14 67 29 32 14 60 26 63 26 3 0 24 9 48 19 23 11 66 29 95
41 64 25 139 59 471 217 160 76 632 311 685 341 28 16 89 51 136 79 48 27 93
52 101 56 8 3 89 54 179 113 90 59 202 132 249 162 47 31 102 70 123 88 63 53
198 114 290 131 45 8 114 21 152 29 39 8 138 26 220 40 83 13 188 33 235 44
47 10 135 28 195 40 131 25 546 130 770 195 161 46 715 229 790 260 61 26 95
40 155 67 30 14 100 44 155 68 55 24 126 61 157 82 31 21 61 38 66 38 11 0
544 348 557 364 6 7 35 29 65 50 86 58 185 129 202 147 9 9 40 31 68 49 55 35
76 54 278 254 133 130 213 215 352 376 36 41 70 80 75 86 6 7 51 64 100 128
50 65 162 209 250 320 88 112 204 259 257 327 53 68 107 135 120 149 13 14 48
54 78 90 30 36 57 67 60 70 25 24 166 192 255 304 107 135 155 199 299 403 38
54 95 133 125 177 83 116 145 216 223 355 114 206 150 254 341 455 26 27 47
52 47 56 0 3 11 17 23 30 13 14 74 91 135 170 61 80 163 213 228 295 125 160
170 219 194 254 18 28 132 187 158 221 10 14 32 48 47 75 16 28 39 64 52 81
13 17 23 34 23 38 0 11 166 273 181 286 3 3 21 28 39 55 126 187 822 897 1072
1095 17 14 39 32 47 40 24 22 82 70 125 105 21 17 49 40 62 53 14 12 38 29 55
37 16 9 29 19 29 23 0 4 14 16 31 26 18 10 40 27 51 38 22 22 1292 856 1328
871 14 6 57 32 95 58 39 25 86 54 105 64 51 26 492 315 510 334 9 9 37 48 62
86 56 86 99 132 133 145 31 12 708 453 745 485 14 12 48 37 75 55 28 19 64 45
81 59 16 14 45 37 64 51 70 52 230 207 304 297 31 37 56 103 56 149 0 29 -6
36 -42 57 -24 14 -70 30 -103 36 -95 18 -562 15 -750 -4 -22 -2 -83 -7 -135
-10 -115 -7 -124 -8 -325 -47 -148 -28 -170 -30 -300 -24 -77 3 -155 10 -174
16 -40 11 -159 28 -251 35 -36 2 -162 0 -280 -5 -226 -11 -344 -28 -510 -75
-52 -15 -116 -33 -141 -40 -25 -7 -72 -25 -103 -39 -31 -14 -59 -26 -62 -26
-3 0 -25 -13 -49 -30 -24 -16 -55 -34 -69 -40 -26 -10 -193 -118 -224 -146 -9
-8 -36 -29 -58 -47 -61 -46 -115 -90 -128 -103 -6 -5 -45 -39 -86 -74 -92 -79
-368 -354 -470 -469 -41 -46 -79 -89 -85 -95 -28 -31 -215 -236 -247 -271 -20
-22 -46 -51 -58 -65 -27 -31 -64 -74 -104 -120 -17 -20 -51 -60 -76 -90 -25
-29 -50 -58 -55 -64 -6 -6 -39 -45 -74 -86 -36 -41 -92 -104 -126 -140 -33
-36 -90 -96 -126 -135 -71 -77 -293 -299 -330 -330 -69 -57 -155 -130 -159
-136 -10 -12 -197 -134 -245 -159 -27 -15 -63 -34 -80 -43 -16 -9 -51 -26 -77
-37 -64 -27 -134 -58 -182 -81 -22 -11 -43 -19 -47 -19 -4 0 -45 -17 -91 -39
-45 -21 -105 -46 -133 -56 -27 -10 -56 -23 -62 -28 -7 -5 -13 -6 -13 -2 0 4
-6 3 -12 -2 -7 -6 -38 -18 -68 -28 -30 -10 -98 -40 -149 -66 -52 -27 -99 -49
-103 -49 -5 0 -50 -28 -101 -62 -51 -34 -121 -74 -157 -89 -86 -36 -245 -66
-405 -76 -163 -9 -633 -11 -661 -2 -11 4 -49 37 -85 75 -35 37 -71 75 -81 85
-9 9 -33 44 -54 76 -20 32 -42 62 -49 68 -7 5 -27 30 -44 55 -18 25 -58 81
-91 125 -71 97 -490 731 -490 742 0 4 -18 35 -40 68 -22 33 -40 64 -40 69 0 5
-16 33 -35 62 -19 29 -35 56 -35 61 0 5 -12 26 -27 48 -15 22 -39 63 -54 90
-14 28 -45 86 -69 130 -132 248 -178 337 -238 465 -53 113 -92 200 -92 206 0
3 -11 30 -25 60 -14 30 -25 57 -25 59 0 2 -11 28 -24 57 -61 135 -70 157 -94
218 -13 36 -64 182 -113 325 -90 263 -119 373 -158 610 -32 195 -105 519 -121
540 -5 6 -16 30 -26 55 -37 95 -162 258 -264 345 -40 34 -170 147 -215 187
-16 14 -52 42 -80 60 -27 19 -108 75 -180 124 -154 107 -198 133 -285 168 -36
15 -74 31 -85 36 -11 5 -38 14 -60 20 -22 7 -96 37 -165 67 -300 131 -355 164
-396 235 -17 29 -39 78 -48 109 -13 45 -27 67 -68 107 -200 189 -430 341 -801
529 -111 56 -208 102 -215 102 -7 1 -32 11 -55 23 -23 11 -107 42 -187 68
-169 55 -346 126 -375 150 -36 31 -144 100 -172 111 -15 6 -101 26 -189 44
-184 37 -254 60 -369 119 -44 23 -102 49 -130 58 -62 20 -312 81 -385 94 -14
3 -67 14 -119 25 -52 11 -144 28 -205 39 -125 21 -493 97 -516 106 -8 3 -58
17 -110 31 -134 35 -187 49 -250 68 -30 8 -82 22 -115 30 -183 43 -267 64
-495 127 -112 31 -130 35 -190 51 -30 8 -80 22 -110 31 -30 9 -98 25 -150 35
-52 11 -147 31 -210 45 -127 27 -289 40 -334 26z"/>
</g>
</svg>
